<mxfile host="Electron" agent="Mozilla/5.0 (Windows NT 10.0; Win64; x64) AppleWebKit/537.36 (KHTML, like Gecko) draw.io/22.0.3 Chrome/114.0.5735.289 Electron/25.8.4 Safari/537.36" modified="2025-01-04T08:38:48.790Z" version="22.0.3" etag="fqHY8gghhvPxnZrK65qp" type="device">
  <diagram id="C5RBs43oDa-KdzZeNtuy" name="Page-1">
    <mxGraphModel dx="1134" dy="730" grid="1" gridSize="10" guides="1" tooltips="1" connect="1" arrows="1" fold="1" page="1" pageScale="1" pageWidth="827" pageHeight="1169" math="0" shadow="0">
      <root>
        <mxCell id="WIyWlLk6GJQsqaUBKTNV-0" />
        <mxCell id="WIyWlLk6GJQsqaUBKTNV-1" parent="WIyWlLk6GJQsqaUBKTNV-0" />
        <mxCell id="zkfFHV4jXpPFQw0GAbJ--0" value="Traveler" style="swimlane;fontStyle=0;align=center;verticalAlign=top;childLayout=stackLayout;horizontal=1;startSize=26;horizontalStack=0;resizeParent=1;resizeLast=0;collapsible=1;marginBottom=0;rounded=0;shadow=0;strokeWidth=1;" parent="WIyWlLk6GJQsqaUBKTNV-1" vertex="1">
          <mxGeometry x="48" y="57" width="160" height="190" as="geometry">
            <mxRectangle x="220" y="120" width="160" height="26" as="alternateBounds" />
          </mxGeometry>
        </mxCell>
        <mxCell id="zkfFHV4jXpPFQw0GAbJ--1" value="-userName: String&#xa;-password: String&#xa;-firstname: String&#xa;-lastname: String&#xa;-email: String&#xa;-originCountry: String&#xa;" style="text;align=left;verticalAlign=top;spacingLeft=4;spacingRight=4;overflow=hidden;rotatable=0;points=[[0,0.5],[1,0.5]];portConstraint=eastwest;" parent="zkfFHV4jXpPFQw0GAbJ--0" vertex="1">
          <mxGeometry y="26" width="160" height="120" as="geometry" />
        </mxCell>
        <mxCell id="zkfFHV4jXpPFQw0GAbJ--4" value="" style="line;html=1;strokeWidth=1;align=left;verticalAlign=middle;spacingTop=-1;spacingLeft=3;spacingRight=3;rotatable=0;labelPosition=right;points=[];portConstraint=eastwest;" parent="zkfFHV4jXpPFQw0GAbJ--0" vertex="1">
          <mxGeometry y="146" width="160" height="6" as="geometry" />
        </mxCell>
        <mxCell id="zkfFHV4jXpPFQw0GAbJ--5" value="+getId(): int&#xa;+saveOrUpdate(): boolean&#xa;&#xa;&#xa; " style="text;align=left;verticalAlign=top;spacingLeft=4;spacingRight=4;overflow=hidden;rotatable=0;points=[[0,0.5],[1,0.5]];portConstraint=eastwest;fontColor=#000000;" parent="zkfFHV4jXpPFQw0GAbJ--0" vertex="1">
          <mxGeometry y="152" width="160" height="38" as="geometry" />
        </mxCell>
        <mxCell id="NLHQeGFv5M9r62Dl8d4k-0" value="Activity" style="swimlane;fontStyle=0;align=center;verticalAlign=top;childLayout=stackLayout;horizontal=1;startSize=26;horizontalStack=0;resizeParent=1;resizeLast=0;collapsible=1;marginBottom=0;rounded=0;shadow=0;strokeWidth=1;" parent="WIyWlLk6GJQsqaUBKTNV-1" vertex="1">
          <mxGeometry x="780" y="270" width="190" height="140" as="geometry">
            <mxRectangle x="220" y="120" width="160" height="26" as="alternateBounds" />
          </mxGeometry>
        </mxCell>
        <mxCell id="NLHQeGFv5M9r62Dl8d4k-1" value="-activityId: int&#xa;-activityName: String&#xa;-details: String&#xa;-startTime: String&#xa;-endTime: String&#xa;&#xa;" style="text;align=left;verticalAlign=top;spacingLeft=4;spacingRight=4;overflow=hidden;rotatable=0;points=[[0,0.5],[1,0.5]];portConstraint=eastwest;" parent="NLHQeGFv5M9r62Dl8d4k-0" vertex="1">
          <mxGeometry y="26" width="190" height="94" as="geometry" />
        </mxCell>
        <mxCell id="NLHQeGFv5M9r62Dl8d4k-2" value="" style="line;html=1;strokeWidth=1;align=left;verticalAlign=middle;spacingTop=-1;spacingLeft=3;spacingRight=3;rotatable=0;labelPosition=right;points=[];portConstraint=eastwest;" parent="NLHQeGFv5M9r62Dl8d4k-0" vertex="1">
          <mxGeometry y="120" width="190" height="6" as="geometry" />
        </mxCell>
        <mxCell id="NLHQeGFv5M9r62Dl8d4k-5" value="*" style="text;html=1;strokeColor=none;fillColor=none;align=center;verticalAlign=middle;whiteSpace=wrap;rounded=0;" parent="WIyWlLk6GJQsqaUBKTNV-1" vertex="1">
          <mxGeometry x="208" y="147" width="20" height="10" as="geometry" />
        </mxCell>
        <mxCell id="-IbQH_iGW6TtNt1lRf_a-13" value="Schedule" style="swimlane;fontStyle=0;align=center;verticalAlign=top;childLayout=stackLayout;horizontal=1;startSize=26;horizontalStack=0;resizeParent=1;resizeLast=0;collapsible=1;marginBottom=0;rounded=0;shadow=0;strokeWidth=1;" parent="WIyWlLk6GJQsqaUBKTNV-1" vertex="1">
          <mxGeometry x="268.5" y="59" width="301.5" height="231" as="geometry">
            <mxRectangle x="220" y="120" width="160" height="26" as="alternateBounds" />
          </mxGeometry>
        </mxCell>
        <mxCell id="mRhoTT5p332TB_ROsCN0-20" value="&lt;font style=&quot;font-size: 12px;&quot;&gt;-scheduleId: int&lt;br&gt;-overallSchedule:&amp;nbsp;Map&amp;lt;Integer, Map&amp;lt;String, Activity&lt;/font&gt;&lt;font style=&quot;font-size: 12px;&quot;&gt;&amp;gt;&amp;gt;&lt;br&gt;-userId: int&lt;br&gt;-comment: String&lt;br&gt;-rating: int&lt;br&gt;-totalDays: int&lt;br&gt;-savedDate: String&lt;br&gt;-destination: Destination&lt;br&gt;&lt;br&gt;&lt;/font&gt;" style="text;html=1;align=left;verticalAlign=middle;resizable=0;points=[];autosize=1;strokeColor=none;fillColor=none;" vertex="1" parent="-IbQH_iGW6TtNt1lRf_a-13">
          <mxGeometry y="26" width="301.5" height="140" as="geometry" />
        </mxCell>
        <mxCell id="mRhoTT5p332TB_ROsCN0-24" value="" style="line;html=1;strokeWidth=1;align=left;verticalAlign=middle;spacingTop=-1;spacingLeft=3;spacingRight=3;rotatable=0;labelPosition=right;points=[];portConstraint=eastwest;" vertex="1" parent="-IbQH_iGW6TtNt1lRf_a-13">
          <mxGeometry y="166" width="301.5" height="6" as="geometry" />
        </mxCell>
        <mxCell id="mRhoTT5p332TB_ROsCN0-23" value="+saveFeedback(): boolean&lt;br&gt;+saveSchedule():void&lt;br&gt;-saveScheduleForUser():void" style="text;whiteSpace=wrap;html=1;" vertex="1" parent="-IbQH_iGW6TtNt1lRf_a-13">
          <mxGeometry y="172" width="301.5" height="58" as="geometry" />
        </mxCell>
        <mxCell id="VtjyG6cp_sSnCIvycA6P-0" value="TravelerService" style="swimlane;fontStyle=0;align=center;verticalAlign=top;childLayout=stackLayout;horizontal=1;startSize=26;horizontalStack=0;resizeParent=1;resizeLast=0;collapsible=1;marginBottom=0;rounded=0;shadow=0;strokeWidth=1;" parent="WIyWlLk6GJQsqaUBKTNV-1" vertex="1">
          <mxGeometry x="48" y="287" width="160" height="120" as="geometry">
            <mxRectangle x="220" y="120" width="160" height="26" as="alternateBounds" />
          </mxGeometry>
        </mxCell>
        <mxCell id="VtjyG6cp_sSnCIvycA6P-2" value="" style="line;html=1;strokeWidth=1;align=left;verticalAlign=middle;spacingTop=-1;spacingLeft=3;spacingRight=3;rotatable=0;labelPosition=right;points=[];portConstraint=eastwest;" parent="VtjyG6cp_sSnCIvycA6P-0" vertex="1">
          <mxGeometry y="26" width="160" height="34" as="geometry" />
        </mxCell>
        <mxCell id="VtjyG6cp_sSnCIvycA6P-3" value="+getTraveler():Traveler&#xa;-userExists():boolean&#xa;+createTraveler():Traveler&#xa;&#xa;&#xa; " style="text;align=left;verticalAlign=top;spacingLeft=4;spacingRight=4;overflow=hidden;rotatable=0;points=[[0,0.5],[1,0.5]];portConstraint=eastwest;fontColor=#000000;" parent="VtjyG6cp_sSnCIvycA6P-0" vertex="1">
          <mxGeometry y="60" width="160" height="60" as="geometry" />
        </mxCell>
        <mxCell id="VtjyG6cp_sSnCIvycA6P-9" value="" style="endArrow=none;html=1;rounded=0;exitX=0.5;exitY=0;exitDx=0;exitDy=0;" parent="WIyWlLk6GJQsqaUBKTNV-1" source="VtjyG6cp_sSnCIvycA6P-0" edge="1" target="zkfFHV4jXpPFQw0GAbJ--5">
          <mxGeometry width="50" height="50" relative="1" as="geometry">
            <mxPoint x="379" y="317" as="sourcePoint" />
            <mxPoint x="129" y="277" as="targetPoint" />
          </mxGeometry>
        </mxCell>
        <mxCell id="VtjyG6cp_sSnCIvycA6P-13" value="" style="endArrow=none;html=1;rounded=0;exitX=1.002;exitY=0.628;exitDx=0;exitDy=0;exitPerimeter=0;" parent="WIyWlLk6GJQsqaUBKTNV-1" source="zkfFHV4jXpPFQw0GAbJ--1" edge="1">
          <mxGeometry width="50" height="50" relative="1" as="geometry">
            <mxPoint x="379" y="190" as="sourcePoint" />
            <mxPoint x="270" y="158" as="targetPoint" />
          </mxGeometry>
        </mxCell>
        <mxCell id="VtjyG6cp_sSnCIvycA6P-14" value="have" style="text;html=1;strokeColor=none;fillColor=none;align=center;verticalAlign=middle;whiteSpace=wrap;rounded=0;" parent="WIyWlLk6GJQsqaUBKTNV-1" vertex="1">
          <mxGeometry x="208.5" y="159.5" width="60" height="30" as="geometry" />
        </mxCell>
        <mxCell id="mRhoTT5p332TB_ROsCN0-0" value="Type" style="swimlane;fontStyle=0;align=center;verticalAlign=top;childLayout=stackLayout;horizontal=1;startSize=26;horizontalStack=0;resizeParent=1;resizeLast=0;collapsible=1;marginBottom=0;rounded=0;shadow=0;strokeWidth=1;" vertex="1" parent="WIyWlLk6GJQsqaUBKTNV-1">
          <mxGeometry x="541" y="520" width="190" height="90" as="geometry">
            <mxRectangle x="220" y="120" width="160" height="26" as="alternateBounds" />
          </mxGeometry>
        </mxCell>
        <mxCell id="mRhoTT5p332TB_ROsCN0-1" value="-typeId: int&#xa;-typeName: String&#xa;&#xa;" style="text;align=left;verticalAlign=top;spacingLeft=4;spacingRight=4;overflow=hidden;rotatable=0;points=[[0,0.5],[1,0.5]];portConstraint=eastwest;" vertex="1" parent="mRhoTT5p332TB_ROsCN0-0">
          <mxGeometry y="26" width="190" height="44" as="geometry" />
        </mxCell>
        <mxCell id="mRhoTT5p332TB_ROsCN0-2" value="" style="line;html=1;strokeWidth=1;align=left;verticalAlign=middle;spacingTop=-1;spacingLeft=3;spacingRight=3;rotatable=0;labelPosition=right;points=[];portConstraint=eastwest;" vertex="1" parent="mRhoTT5p332TB_ROsCN0-0">
          <mxGeometry y="70" width="190" height="6" as="geometry" />
        </mxCell>
        <mxCell id="mRhoTT5p332TB_ROsCN0-6" value="Budget" style="swimlane;fontStyle=0;align=center;verticalAlign=top;childLayout=stackLayout;horizontal=1;startSize=26;horizontalStack=0;resizeParent=1;resizeLast=0;collapsible=1;marginBottom=0;rounded=0;shadow=0;strokeWidth=1;" vertex="1" parent="WIyWlLk6GJQsqaUBKTNV-1">
          <mxGeometry x="770" y="520" width="190" height="90" as="geometry">
            <mxRectangle x="220" y="120" width="160" height="26" as="alternateBounds" />
          </mxGeometry>
        </mxCell>
        <mxCell id="mRhoTT5p332TB_ROsCN0-7" value="-budgetId: int&#xa;-budgetName: String&#xa;&#xa;" style="text;align=left;verticalAlign=top;spacingLeft=4;spacingRight=4;overflow=hidden;rotatable=0;points=[[0,0.5],[1,0.5]];portConstraint=eastwest;" vertex="1" parent="mRhoTT5p332TB_ROsCN0-6">
          <mxGeometry y="26" width="190" height="44" as="geometry" />
        </mxCell>
        <mxCell id="mRhoTT5p332TB_ROsCN0-8" value="" style="line;html=1;strokeWidth=1;align=left;verticalAlign=middle;spacingTop=-1;spacingLeft=3;spacingRight=3;rotatable=0;labelPosition=right;points=[];portConstraint=eastwest;" vertex="1" parent="mRhoTT5p332TB_ROsCN0-6">
          <mxGeometry y="70" width="190" height="6" as="geometry" />
        </mxCell>
        <mxCell id="mRhoTT5p332TB_ROsCN0-9" value="Destination" style="swimlane;fontStyle=0;align=center;verticalAlign=top;childLayout=stackLayout;horizontal=1;startSize=26;horizontalStack=0;resizeParent=1;resizeLast=0;collapsible=1;marginBottom=0;rounded=0;shadow=0;strokeWidth=1;" vertex="1" parent="WIyWlLk6GJQsqaUBKTNV-1">
          <mxGeometry x="268.5" y="355" width="190" height="130" as="geometry">
            <mxRectangle x="220" y="120" width="160" height="26" as="alternateBounds" />
          </mxGeometry>
        </mxCell>
        <mxCell id="mRhoTT5p332TB_ROsCN0-10" value="-destinationId: int&#xa;-destinationPhotoPath: String&#xa;-destinationDetails: String&#xa;-latitude: float&#xa;-longtitude: float" style="text;align=left;verticalAlign=top;spacingLeft=4;spacingRight=4;overflow=hidden;rotatable=0;points=[[0,0.5],[1,0.5]];portConstraint=eastwest;" vertex="1" parent="mRhoTT5p332TB_ROsCN0-9">
          <mxGeometry y="26" width="190" height="84" as="geometry" />
        </mxCell>
        <mxCell id="mRhoTT5p332TB_ROsCN0-11" value="" style="line;html=1;strokeWidth=1;align=left;verticalAlign=middle;spacingTop=-1;spacingLeft=3;spacingRight=3;rotatable=0;labelPosition=right;points=[];portConstraint=eastwest;" vertex="1" parent="mRhoTT5p332TB_ROsCN0-9">
          <mxGeometry y="110" width="190" height="10" as="geometry" />
        </mxCell>
        <mxCell id="mRhoTT5p332TB_ROsCN0-19" value="" style="group" vertex="1" connectable="0" parent="WIyWlLk6GJQsqaUBKTNV-1">
          <mxGeometry x="531" y="355" width="210" height="110" as="geometry" />
        </mxCell>
        <mxCell id="mRhoTT5p332TB_ROsCN0-12" value="CatalogService" style="swimlane;fontStyle=0;align=center;verticalAlign=top;childLayout=stackLayout;horizontal=1;startSize=26;horizontalStack=0;resizeParent=1;resizeLast=0;collapsible=1;marginBottom=0;rounded=0;shadow=0;strokeWidth=1;" vertex="1" parent="mRhoTT5p332TB_ROsCN0-19">
          <mxGeometry width="210" height="110" as="geometry">
            <mxRectangle x="220" y="120" width="160" height="26" as="alternateBounds" />
          </mxGeometry>
        </mxCell>
        <mxCell id="mRhoTT5p332TB_ROsCN0-16" value="+fetchDestinations():List&amp;lt;Desination&amp;gt;&lt;br&gt;+fetchTypes(): List&amp;lt;Type&amp;gt;&lt;br&gt;+fetchBudgets():List&amp;lt;Budget&amp;gt;&lt;br&gt;+fetchDestinationInfo():Destination" style="text;whiteSpace=wrap;html=1;" vertex="1" parent="mRhoTT5p332TB_ROsCN0-12">
          <mxGeometry y="26" width="210" height="84" as="geometry" />
        </mxCell>
        <mxCell id="mRhoTT5p332TB_ROsCN0-18" value="" style="line;html=1;strokeWidth=1;align=left;verticalAlign=middle;spacingTop=-1;spacingLeft=3;spacingRight=3;rotatable=0;labelPosition=right;points=[];portConstraint=eastwest;" vertex="1" parent="mRhoTT5p332TB_ROsCN0-19">
          <mxGeometry y="90" width="210" height="10" as="geometry" />
        </mxCell>
        <mxCell id="mRhoTT5p332TB_ROsCN0-25" value="ScheduleDAO" style="swimlane;fontStyle=0;align=center;verticalAlign=top;childLayout=stackLayout;horizontal=1;startSize=26;horizontalStack=0;resizeParent=1;resizeLast=0;collapsible=1;marginBottom=0;rounded=0;shadow=0;strokeWidth=1;" vertex="1" parent="WIyWlLk6GJQsqaUBKTNV-1">
          <mxGeometry x="610" y="60" width="277" height="160" as="geometry">
            <mxRectangle x="220" y="120" width="160" height="26" as="alternateBounds" />
          </mxGeometry>
        </mxCell>
        <mxCell id="mRhoTT5p332TB_ROsCN0-27" value="" style="line;html=1;strokeWidth=1;align=left;verticalAlign=middle;spacingTop=-1;spacingLeft=3;spacingRight=3;rotatable=0;labelPosition=right;points=[];portConstraint=eastwest;" vertex="1" parent="mRhoTT5p332TB_ROsCN0-25">
          <mxGeometry y="26" width="277" height="34" as="geometry" />
        </mxCell>
        <mxCell id="mRhoTT5p332TB_ROsCN0-22" value="&lt;font style=&quot;font-size: 12px;&quot;&gt;+searchActivities(): List&amp;lt;Activity&amp;gt;&lt;br&gt;+createSchedule(): Schedule&lt;br&gt;-generateScheduleId():int&lt;br&gt;-fetchOverallSchedule():&amp;nbsp;Map&amp;lt;Integer, Map&amp;lt;String, Activity&amp;gt;&amp;gt;&lt;br&gt;+fetchPastSchedules():&amp;nbsp;List&amp;lt;Schedule&lt;/font&gt;&lt;font style=&quot;font-size: 12px;&quot;&gt;&amp;gt;&lt;/font&gt;" style="text;whiteSpace=wrap;html=1;" vertex="1" parent="mRhoTT5p332TB_ROsCN0-25">
          <mxGeometry y="60" width="277" height="100" as="geometry" />
        </mxCell>
        <mxCell id="mRhoTT5p332TB_ROsCN0-29" value="" style="endArrow=none;html=1;rounded=0;exitX=-0.001;exitY=0.339;exitDx=0;exitDy=0;exitPerimeter=0;" edge="1" parent="WIyWlLk6GJQsqaUBKTNV-1" source="mRhoTT5p332TB_ROsCN0-22" target="mRhoTT5p332TB_ROsCN0-20">
          <mxGeometry width="50" height="50" relative="1" as="geometry">
            <mxPoint x="580" y="320" as="sourcePoint" />
            <mxPoint x="580" y="280" as="targetPoint" />
          </mxGeometry>
        </mxCell>
        <mxCell id="mRhoTT5p332TB_ROsCN0-30" value="" style="endArrow=none;html=1;rounded=0;entryX=0;entryY=0.5;entryDx=0;entryDy=0;exitX=1;exitY=0.5;exitDx=0;exitDy=0;" edge="1" parent="WIyWlLk6GJQsqaUBKTNV-1" source="mRhoTT5p332TB_ROsCN0-10" target="mRhoTT5p332TB_ROsCN0-16">
          <mxGeometry width="50" height="50" relative="1" as="geometry">
            <mxPoint x="460" y="570" as="sourcePoint" />
            <mxPoint x="510" y="520" as="targetPoint" />
          </mxGeometry>
        </mxCell>
        <mxCell id="mRhoTT5p332TB_ROsCN0-31" value="" style="endArrow=none;html=1;rounded=0;entryX=0.5;entryY=1;entryDx=0;entryDy=0;" edge="1" parent="WIyWlLk6GJQsqaUBKTNV-1" source="mRhoTT5p332TB_ROsCN0-0" target="mRhoTT5p332TB_ROsCN0-16">
          <mxGeometry width="50" height="50" relative="1" as="geometry">
            <mxPoint x="148" y="280" as="sourcePoint" />
            <mxPoint x="148" y="240" as="targetPoint" />
          </mxGeometry>
        </mxCell>
        <mxCell id="mRhoTT5p332TB_ROsCN0-32" value="" style="endArrow=none;html=1;rounded=0;entryX=0.5;entryY=1;entryDx=0;entryDy=0;exitX=0.5;exitY=0;exitDx=0;exitDy=0;" edge="1" parent="WIyWlLk6GJQsqaUBKTNV-1" source="mRhoTT5p332TB_ROsCN0-6" target="mRhoTT5p332TB_ROsCN0-16">
          <mxGeometry width="50" height="50" relative="1" as="geometry">
            <mxPoint x="460" y="460" as="sourcePoint" />
            <mxPoint x="510" y="410" as="targetPoint" />
          </mxGeometry>
        </mxCell>
        <mxCell id="mRhoTT5p332TB_ROsCN0-33" value="" style="endArrow=none;html=1;rounded=0;exitX=0.5;exitY=0;exitDx=0;exitDy=0;entryX=0.313;entryY=1.024;entryDx=0;entryDy=0;entryPerimeter=0;" edge="1" parent="WIyWlLk6GJQsqaUBKTNV-1" source="mRhoTT5p332TB_ROsCN0-9" target="mRhoTT5p332TB_ROsCN0-23">
          <mxGeometry width="50" height="50" relative="1" as="geometry">
            <mxPoint x="158" y="290" as="sourcePoint" />
            <mxPoint x="158" y="250" as="targetPoint" />
          </mxGeometry>
        </mxCell>
        <mxCell id="mRhoTT5p332TB_ROsCN0-34" value="" style="endArrow=none;html=1;rounded=0;entryX=0.5;entryY=1;entryDx=0;entryDy=0;exitX=0.5;exitY=0;exitDx=0;exitDy=0;" edge="1" parent="WIyWlLk6GJQsqaUBKTNV-1" source="NLHQeGFv5M9r62Dl8d4k-0" target="mRhoTT5p332TB_ROsCN0-22">
          <mxGeometry width="50" height="50" relative="1" as="geometry">
            <mxPoint x="610" y="330" as="sourcePoint" />
            <mxPoint x="660" y="280" as="targetPoint" />
          </mxGeometry>
        </mxCell>
        <mxCell id="mRhoTT5p332TB_ROsCN0-35" value="" style="endArrow=none;html=1;rounded=0;entryX=0.999;entryY=0.454;entryDx=0;entryDy=0;exitX=0;exitY=0;exitDx=0;exitDy=0;entryPerimeter=0;" edge="1" parent="WIyWlLk6GJQsqaUBKTNV-1" source="NLHQeGFv5M9r62Dl8d4k-0" target="mRhoTT5p332TB_ROsCN0-24">
          <mxGeometry width="50" height="50" relative="1" as="geometry">
            <mxPoint x="610" y="330" as="sourcePoint" />
            <mxPoint x="660" y="280" as="targetPoint" />
          </mxGeometry>
        </mxCell>
        <mxCell id="mRhoTT5p332TB_ROsCN0-36" value="*" style="text;html=1;strokeColor=none;fillColor=none;align=center;verticalAlign=middle;whiteSpace=wrap;rounded=0;" vertex="1" parent="WIyWlLk6GJQsqaUBKTNV-1">
          <mxGeometry x="248.5" y="147" width="20" height="10" as="geometry" />
        </mxCell>
        <mxCell id="mRhoTT5p332TB_ROsCN0-38" value="search" style="text;html=1;strokeColor=none;fillColor=none;align=center;verticalAlign=middle;whiteSpace=wrap;rounded=0;" vertex="1" parent="WIyWlLk6GJQsqaUBKTNV-1">
          <mxGeometry x="835" y="230" width="60" height="30" as="geometry" />
        </mxCell>
        <mxCell id="mRhoTT5p332TB_ROsCN0-40" value="contains" style="text;html=1;strokeColor=none;fillColor=none;align=center;verticalAlign=middle;whiteSpace=wrap;rounded=0;" vertex="1" parent="WIyWlLk6GJQsqaUBKTNV-1">
          <mxGeometry x="590" y="240" width="60" height="30" as="geometry" />
        </mxCell>
      </root>
    </mxGraphModel>
  </diagram>
</mxfile>
